<svg id="Layer_1" data-name="Layer 1" xmlns="http://www.w3.org/2000/svg" viewBox="0 0 486.96 322.56"><defs><style>.cls-1{fill:#551a8b;}</style></defs><path class="cls-1" d="M243.48,0C109,0,0,109,0,243.48a243.16,243.16,0,0,0,13.14,79.08h156.4l-1.9-3C158,304.43,143,269,142.1,265.76a1.33,1.33,0,0,1,0-.21v-5.67a2.07,2.07,0,0,1,2.07-2.06H234.9V236.65H137a170.34,170.34,0,0,0,19.51-39.1c.08-.25.17-.5.26-.75.16-.46.31-.93.46-1.39s.39-1.18.58-1.77c0-.14.09-.29.14-.43.28-.9.56-1.8.83-2.71h0q2-6.63,3.44-13.48H234.9V155.85H189.79a1.39,1.39,0,0,1-.5-.09c0-.06.05-.12.07-.17l-.07,0a152.38,152.38,0,0,0,13.48-63.14c0-.82,0-1.65,0-2.47h.1v-.05H234.9V24.79L313.5,49,252.06,68.43V89.88h32.07v.05h.09c0,.82,0,1.65,0,2.47a152.23,152.23,0,0,0,13.49,63.14.2.2,0,0,0-.08,0s0,.11.08.17a1.44,1.44,0,0,1-.51.09H252.06V177h72.73q1.44,6.86,3.43,13.48h0c.27.91.55,1.81.84,2.71,0,.14.08.29.13.43.19.59.39,1.18.58,1.77s.3.93.46,1.39l.27.75A169.94,169.94,0,0,0,350,236.65H252.06v21.17h90.78a2.07,2.07,0,0,1,2.07,2.06v5.67a1.33,1.33,0,0,1-.05.21c-.92,3.22-15.9,38.67-25.54,53.82l-1.89,3H473.82A243.16,243.16,0,0,0,487,243.48C487,109,378,0,243.48,0Z"/></svg>