<?xml version="1.0" encoding="iso-8859-1"?>
<!-- Generator: Adobe Illustrator 24.2.3, SVG Export Plug-In . SVG Version: 6.00 Build 0)  -->
<svg version="1.1" id="Layer_1" xmlns="http://www.w3.org/2000/svg" xmlns:xlink="http://www.w3.org/1999/xlink" x="0px" y="0px"
	 viewBox="0 0 1252.878 248.839" style="enable-background:new 0 0 1252.878 248.839;" xml:space="preserve">
<g>
	<g>
		<path style="fill:#551A8B;" d="M526.166,245.11l-44.088-58.783v58.783h-35.095V68.979h35.095v110.329l44.088-55.713h41.456
			l-47.378,57.906l48.913,63.609H526.166z"/>
		<path style="fill:#551A8B;" d="M703.4,200.803c0,25.882-22.592,48.035-61.635,48.035c-38.384,0-61.416-22.372-61.416-48.035
			c0-16.67,9.213-33.12,27.418-39.92v-0.439c-12.941-6.361-22.812-18.863-22.812-36.849c0-24.128,20.618-45.843,56.809-45.843
			c36.412,0,56.81,21.715,56.81,45.623c0,18.206-10.09,30.708-22.811,37.069v0.439C694.188,167.902,703.4,183.256,703.4,200.803z
			 M615.444,197.514c0,11.625,9.432,22.372,26.321,22.372c17.328,0,26.761-10.747,26.761-22.372
			c0-12.064-9.871-22.374-26.761-22.374C625.095,175.14,615.444,185.45,615.444,197.514z M641.765,149.259
			c15.135,0,24.129-9.651,24.129-21.057c0-10.528-8.774-21.057-24.129-21.057c-15.134,0-23.908,10.308-23.908,21.057
			C617.857,139.608,626.85,149.259,641.765,149.259z"/>
		<path style="fill:#551A8B;" d="M722.489,184.353c0-38.824,25.883-63.829,54.178-63.829c16.451,0,30.269,8.335,37.727,20.838
			V68.979h35.095V245.11h-29.612l-3.509-18.643c-7.896,12.721-21.934,21.714-39.262,21.714
			C748.81,248.181,722.489,223.176,722.489,184.353z M814.833,184.353c0-18.865-12.063-32.244-28.296-32.244
			c-16.45,0-28.733,13.819-28.733,32.244c0,18.643,12.283,32.243,28.733,32.243C802.769,216.596,814.833,203.216,814.833,184.353z"
			/>
		<path style="fill:#551A8B;" d="M872.088,184.791c0-38.823,26.541-64.266,53.959-64.266c18.205,0,32.023,9.212,39.919,21.715
			l3.509-18.645h29.612V245.11h-29.612l-3.509-18.643c-7.896,12.721-21.714,21.714-39.919,21.714
			C898.629,248.181,872.088,222.738,872.088,184.791z M964.651,184.353c0-18.865-12.064-32.244-28.296-32.244
			c-16.67,0-28.953,13.819-28.953,32.244c0,18.643,12.283,32.243,28.953,32.243C952.587,216.596,964.651,203.216,964.651,184.353z"
			/>
		<path style="fill:#551A8B;" d="M1111.837,129.957v29.83c-8.555-5.923-23.25-10.748-37.068-10.748
			c-10.968,0-17.11,3.729-17.11,9.651c0,6.58,7.019,9.212,20.838,12.941c19.961,4.827,41.236,11.626,41.236,37.289
			c0,23.908-18.863,39.262-51.765,39.262c-17.547,0-32.681-4.387-43.43-11.406v-32.243c10.308,8.334,24.128,15.134,41.894,15.134
			c12.283,0,19.302-3.948,19.302-10.528c0-7.458-8.774-9.87-24.566-14.257c-19.302-5.484-37.287-13.38-37.287-35.534
			c0-22.372,18.205-38.823,49.57-38.823C1087.709,120.525,1102.404,124.034,1111.837,129.957z"/>
		<path style="fill:#551A8B;" d="M1177.425,135.44h0.219c6.8-8.555,18.643-14.915,32.463-14.915
			c26.102,0,42.772,15.574,42.772,43.43v81.156h-35.095v-71.285c0-14.915-6.361-21.715-19.302-21.715
			c-11.846,0-21.057,7.458-21.057,20.398v72.603h-35.095V68.979h35.095V135.44z"/>
	</g>
	<path style="fill:#551A8B;" d="M185.602,0C83.097,0,0,83.097,0,185.601c0,21.1,3.529,41.385,10.017,60.282h119.221l-1.448-2.272
		c-7.349-11.549-18.768-38.572-19.469-41.026c-0.023-0.084-0.038-0.137-0.038-0.16v-4.322c0-0.869,0.709-1.57,1.578-1.57h69.202
		v-16.135H104.4c6.16-9.175,11.184-19.179,14.872-29.81c0.066-0.191,0.136-0.381,0.201-0.573c0.12-0.351,0.233-0.705,0.35-1.057
		c0.149-0.449,0.301-0.898,0.445-1.349c0.035-0.109,0.067-0.219,0.102-0.328c0.217-0.687,0.431-1.375,0.637-2.066v-0.008
		c1.009-3.364,1.879-6.794,2.618-10.273h55.438V118.8h-34.035h-0.353c-0.139,0-0.263-0.018-0.386-0.064
		c0.02-0.045,0.039-0.09,0.06-0.135c-0.019-0.012-0.041-0.016-0.06-0.029c6.58-14.47,10.281-30.816,10.281-48.127
		c0-0.628-0.008-1.257-0.025-1.885c0.023-0.006,0.051-0.005,0.074-0.011c0-0.012,0-0.023-0.001-0.035h0.246h24.197V56.306V18.899
		l59.917,18.432l-46.837,14.833v16.35h24.197h0.246c0,0.012,0,0.023,0,0.035c0.024,0.005,0.051,0.004,0.074,0.011
		c-0.016,0.628-0.025,1.257-0.025,1.885c0,17.311,3.701,33.657,10.281,48.127c-0.018,0.012-0.041,0.017-0.06,0.029
		c0.02,0.045,0.039,0.09,0.06,0.135c-0.123,0.046-0.246,0.064-0.386,0.064h-0.353h-34.035v16.133h55.438
		c0.739,3.479,1.609,6.909,2.618,10.273v0.008c0.206,0.691,0.42,1.38,0.637,2.066c0.035,0.109,0.067,0.219,0.102,0.328
		c0.144,0.452,0.296,0.9,0.445,1.349c0.117,0.352,0.23,0.706,0.35,1.057c0.065,0.192,0.135,0.382,0.201,0.573
		c3.688,10.63,8.712,20.634,14.872,29.81h-74.663v16.135h69.2c0.869,0,1.578,0.701,1.578,1.57v4.322c0,0.023-0.015,0.076-0.038,0.16
		c-0.701,2.455-12.12,29.478-19.469,41.026l-1.441,2.272h119.214c6.487-18.897,10.017-39.182,10.017-60.282
		C371.203,83.097,288.106,0,185.602,0z"/>
</g>
</svg>
